<?xml version="1.0" encoding="UTF-8"?>
<svg id="_图层_2" data-name="图层 2" xmlns="http://www.w3.org/2000/svg" viewBox="0 0 722.43 99">
  <defs>
    <style>
      .cls-1, .cls-2 {
        fill: #fff;
      }

      .cls-2 {
        font-family: Netron-Regular, Netron;
        font-size: 72px;
      }

      .cls-3 {
        letter-spacing: -.05em;
      }

      .cls-4 {
        letter-spacing: -.17em;
      }
    </style>
  </defs>
  <g id="_图层_1-2" data-name="图层 1">
    <g>
      <path class="cls-1" d="m140.95.25l-1.42,1.41-33,33-.58.59-11.67,11.67-2.59,2.58-20.75,20.75-11.66,11.67-.59.58-15.57,15.57c-.59.59-1.4.93-2.24.93H3.17c-2.82,0-4.24-3.41-2.24-5.41h0s11.09-11.09,11.09-11.09l16.5-16.5,7.42-7.41,4.58-4.59,4.84-4.84c1.24-1.24,1.24-3.24,0-4.48l-4.84-4.84-4.59-4.59-2.25-2.25-9.42-9.42-.24-.24-6.84-6.84-4.58-4.58-6.51-6.51c-2-2-.58-5.41,2.24-5.41h37.71c.84,0,1.65.33,2.24.93l20.42,20.42c1.24,1.24,3.25,1.24,4.48,0l.34-.34,4.5-4.5,4.59-4.58,7.41-7.42,3.57-3.57c.59-.59,1.4-.93,2.24-.93h44.86l.25.25Z"/>
      <path class="cls-1" d="m222.03,69.17v26.66c0,1.75-1.42,3.17-3.17,3.17H73.18c-2.82,0-4.24-3.42-2.24-5.41h0s2.58-2.59,2.58-2.59l25-25,7.42-7.41.58-.59,8.5-8.5,2.59-2.58,5.41-5.42,16.5-16.5,1.42-1.42,7.08-7.08,4.59-4.58,3.41-3.42,7.57-7.57c.59-.59,1.4-.93,2.24-.93h44.87l.25.25-5.43,5.42-6.24,6.25-4.59,4.58-5.67,5.67-1.41,1.42-9.42,9.41-5.67,5.67-8.24,8.25-2.59,2.58-5.67,5.67-3.41,3.42-2,2c-2,2-.58,5.41,2.24,5.41h66.01c1.75,0,3.17,1.42,3.17,3.17Z"/>
    </g>
    <text class="cls-2" transform="translate(255.59 76.93)"><tspan x="0" y="0">MindS</tspan><tspan class="cls-4" x="248.9" y="0">p</tspan><tspan class="cls-3" x="294.84" y="0">a</tspan><tspan x="349.77" y="0">ce</tspan></text>
  </g>
</svg>